<svg width="120" height="120" viewBox="0 0 120 120" fill="none" xmlns="http://www.w3.org/2000/svg">
  <defs>
    <linearGradient id="c2bg" x1="0" y1="0" x2="1" y2="1">
      <stop stop-color="#fce7f3"/>
      <stop offset="1" stop-color="#fbcfe8"/>
    </linearGradient>
  </defs>
  <circle cx="60" cy="60" r="56" fill="url(#c2bg)"/>
  <path d="M60 30 C50 30 42 38 42 50 C42 62 50 72 60 82 C70 72 78 62 78 50 C78 38 70 30 60 30 Z" fill="#fff" stroke="#db2777" stroke-width="2"/>
  <path d="M60 38 C53 38 48 43 48 50 C48 58 53 65 60 72 C67 65 72 58 72 50 C72 43 67 38 60 38 Z" fill="#db2777" opacity="0.15"/>
  <circle cx="60" cy="50" r="5" fill="#db2777"/>
  <path d="M30 95 Q60 85 90 95" stroke="#db2777" stroke-width="3" fill="none" stroke-linecap="round"/>
  <path d="M30 95 Q60 85 90 95" stroke="#db2777" stroke-width="1" fill="none" opacity="0.4"/>
</svg>
