<svg width="120" height="120" viewBox="0 0 120 120" fill="none" xmlns="http://www.w3.org/2000/svg">
  <rect x="20" y="55" width="80" height="40" rx="8" fill="#e7f1ed" stroke="#0f8c78" stroke-width="2.5"/>
  <rect x="28" y="48" width="64" height="10" rx="4" fill="#0f8c78"/>
  <path d="M30 58v-8M50 58v-8M70 58v-8M90 58v-8" stroke="#0b5a4d" stroke-width="2"/>
  <path d="M30 65h22M30 72h16M30 79h26" stroke="#0f8c78" stroke-width="2" stroke-linecap="round" opacity="0.5"/>
  <path d="M20 88c-8 0-8 12 0 12h80c8 0 8-12 0-12" stroke="#0b5a4d" stroke-width="2.5" fill="#fff"/>
  <circle cx="35" cy="100" r="6" fill="#0f8c78"/>
  <circle cx="85" cy="100" r="6" fill="#0f8c78"/>
  <path d="M60 28v12M54 34h12" stroke="#0f8c78" stroke-width="2.5" stroke-linecap="round"/>
  <path d="M60 40c-5 4-8 8-8 12" stroke="#0f8c78" stroke-width="2" stroke-linecap="round" opacity="0.4"/>
</svg>
